<svg id="visual" viewBox="0 0 900 600" width="900" height="600" xmlns="http://www.w3.org/2000/svg" xmlns:xlink="http://www.w3.org/1999/xlink" version="1.1"><rect x="0" y="0" width="900" height="600" fill="#0f0f10"></rect><path d="M0 160L18.8 157.2C37.7 154.3 75.3 148.7 112.8 146.2C150.3 143.7 187.7 144.3 225.2 147.3C262.7 150.3 300.3 155.7 337.8 156.8C375.3 158 412.7 155 450.2 153.5C487.7 152 525.3 152 562.8 155.8C600.3 159.7 637.7 167.3 675.2 165.2C712.7 163 750.3 151 787.8 148.3C825.3 145.7 862.7 152.3 881.3 155.7L900 159L900 0L881.3 0C862.7 0 825.3 0 787.8 0C750.3 0 712.7 0 675.2 0C637.7 0 600.3 0 562.8 0C525.3 0 487.7 0 450.2 0C412.7 0 375.3 0 337.8 0C300.3 0 262.7 0 225.2 0C187.7 0 150.3 0 112.8 0C75.3 0 37.7 0 18.8 0L0 0Z" fill="#c62368"></path><path d="M0 141L18.8 134C37.7 127 75.3 113 112.8 112.8C150.3 112.7 187.7 126.3 225.2 132.8C262.7 139.3 300.3 138.7 337.8 140C375.3 141.3 412.7 144.7 450.2 140.7C487.7 136.7 525.3 125.3 562.8 124.5C600.3 123.7 637.7 133.3 675.2 138.8C712.7 144.3 750.3 145.7 787.8 138.2C825.3 130.7 862.7 114.3 881.3 106.2L900 98L900 0L881.3 0C862.7 0 825.3 0 787.8 0C750.3 0 712.7 0 675.2 0C637.7 0 600.3 0 562.8 0C525.3 0 487.7 0 450.2 0C412.7 0 375.3 0 337.8 0C300.3 0 262.7 0 225.2 0C187.7 0 150.3 0 112.8 0C75.3 0 37.7 0 18.8 0L0 0Z" fill="#da3f67"></path><path d="M0 71L18.8 75.8C37.7 80.7 75.3 90.3 112.8 96.2C150.3 102 187.7 104 225.2 103C262.7 102 300.3 98 337.8 92.7C375.3 87.3 412.7 80.7 450.2 77.8C487.7 75 525.3 76 562.8 79.7C600.3 83.3 637.7 89.7 675.2 91.5C712.7 93.3 750.3 90.7 787.8 91.3C825.3 92 862.7 96 881.3 98L900 100L900 0L881.3 0C862.7 0 825.3 0 787.8 0C750.3 0 712.7 0 675.2 0C637.7 0 600.3 0 562.8 0C525.3 0 487.7 0 450.2 0C412.7 0 375.3 0 337.8 0C300.3 0 262.7 0 225.2 0C187.7 0 150.3 0 112.8 0C75.3 0 37.7 0 18.8 0L0 0Z" fill="#eb5967"></path><path d="M0 51L18.8 49.8C37.7 48.7 75.3 46.3 112.8 48.7C150.3 51 187.7 58 225.2 59.3C262.7 60.7 300.3 56.3 337.8 54.2C375.3 52 412.7 52 450.2 48.5C487.7 45 525.3 38 562.8 40.2C600.3 42.3 637.7 53.7 675.2 55.2C712.7 56.7 750.3 48.3 787.8 44.7C825.3 41 862.7 42 881.3 42.5L900 43L900 0L881.3 0C862.7 0 825.3 0 787.8 0C750.3 0 712.7 0 675.2 0C637.7 0 600.3 0 562.8 0C525.3 0 487.7 0 450.2 0C412.7 0 375.3 0 337.8 0C300.3 0 262.7 0 225.2 0C187.7 0 150.3 0 112.8 0C75.3 0 37.7 0 18.8 0L0 0Z" fill="#fa7268"></path></svg>