<svg id="visual" viewBox="0 0 960 300" width="960" height="300" xmlns="http://www.w3.org/2000/svg" xmlns:xlink="http://www.w3.org/1999/xlink" version="1.1"><rect x="0" y="0" width="960" height="300" fill="#0f0f10"></rect><path d="M0 43L12.3 41C24.7 39 49.3 35 74 41.3C98.7 47.7 123.3 64.3 148 64.7C172.7 65 197.3 49 221.8 48.5C246.3 48 270.7 63 295.2 71C319.7 79 344.3 80 369 76C393.7 72 418.3 63 443 61.7C467.7 60.3 492.3 66.7 517 63.3C541.7 60 566.3 47 591 44.8C615.7 42.7 640.3 51.3 664.8 60C689.3 68.7 713.7 77.3 738.2 81.8C762.7 86.3 787.3 86.7 812 89.5C836.7 92.3 861.3 97.7 886 95C910.7 92.3 935.3 81.7 947.7 76.3L960 71L960 0L947.7 0C935.3 0 910.7 0 886 0C861.3 0 836.7 0 812 0C787.3 0 762.7 0 738.2 0C713.7 0 689.3 0 664.8 0C640.3 0 615.7 0 591 0C566.3 0 541.7 0 517 0C492.3 0 467.7 0 443 0C418.3 0 393.7 0 369 0C344.3 0 319.7 0 295.2 0C270.7 0 246.3 0 221.8 0C197.3 0 172.7 0 148 0C123.3 0 98.7 0 74 0C49.3 0 24.7 0 12.3 0L0 0Z" fill="#ff6f61"></path><path d="M0 34L12.3 35.3C24.7 36.7 49.3 39.3 74 35.7C98.7 32 123.3 22 148 19C172.7 16 197.3 20 221.8 19.5C246.3 19 270.7 14 295.2 22C319.7 30 344.3 51 369 52.7C393.7 54.3 418.3 36.7 443 32.5C467.7 28.3 492.3 37.7 517 37C541.7 36.3 566.3 25.7 591 27.2C615.7 28.7 640.3 42.3 664.8 48.8C689.3 55.3 713.7 54.7 738.2 57.8C762.7 61 787.3 68 812 72.5C836.7 77 861.3 79 886 69.5C910.7 60 935.3 39 947.7 28.5L960 18L960 0L947.7 0C935.3 0 910.7 0 886 0C861.3 0 836.7 0 812 0C787.3 0 762.7 0 738.2 0C713.7 0 689.3 0 664.8 0C640.3 0 615.7 0 591 0C566.3 0 541.7 0 517 0C492.3 0 467.7 0 443 0C418.3 0 393.7 0 369 0C344.3 0 319.7 0 295.2 0C270.7 0 246.3 0 221.8 0C197.3 0 172.7 0 148 0C123.3 0 98.7 0 74 0C49.3 0 24.7 0 12.3 0L0 0Z" fill="#ee5849"></path><path d="M0 3L12.3 3.3C24.7 3.7 49.3 4.3 74 8.8C98.7 13.3 123.3 21.7 148 22.5C172.7 23.3 197.3 16.7 221.8 12.3C246.3 8 270.7 6 295.2 11.7C319.7 17.3 344.3 30.7 369 33.3C393.7 36 418.3 28 443 25.7C467.7 23.3 492.3 26.7 517 26.2C541.7 25.7 566.3 21.3 591 21.5C615.7 21.7 640.3 26.3 664.8 31.3C689.3 36.3 713.7 41.7 738.2 41C762.7 40.3 787.3 33.7 812 32.2C836.7 30.7 861.3 34.3 886 36.7C910.7 39 935.3 40 947.7 40.5L960 41L960 0L947.7 0C935.3 0 910.7 0 886 0C861.3 0 836.7 0 812 0C787.3 0 762.7 0 738.2 0C713.7 0 689.3 0 664.8 0C640.3 0 615.7 0 591 0C566.3 0 541.7 0 517 0C492.3 0 467.7 0 443 0C418.3 0 393.7 0 369 0C344.3 0 319.7 0 295.2 0C270.7 0 246.3 0 221.8 0C197.3 0 172.7 0 148 0C123.3 0 98.7 0 74 0C49.3 0 24.7 0 12.3 0L0 0Z" fill="#dd3f31"></path></svg>